<svg xmlns="http://www.w3.org/2000/svg" xmlns:xlink="http://www.w3.org/1999/xlink" version="1.1" width="512" height="512" viewBox="0 0 512 512" xml:space="preserve">
<desc>Created with Fabric.js 3.5.0</desc>
<defs>
</defs>
<rect x="0" y="0" width="100%" height="100%" fill="rgba(255,255,255,0)"/>
<g transform="matrix(1 0 0 1 237.3333 289.78)" style="" id="606326">
		
<path xml:space="preserve" font-family="Poppins" font-size="512" font-style="normal" font-weight="bold" style="stroke: none; stroke-width: 1; stroke-dasharray: none; stroke-linecap: butt; stroke-dashoffset: 0; stroke-linejoin: miter; stroke-miterlimit: 4; is-custom-font: none; font-file-url: none; fill: rgb(255,163,102); fill-rule: nonzero; opacity: 1; white-space: pre;" d="M-123.65-211.38L-28.93-211.38L-39.17 33.86L-113.41 33.86L-123.65-211.38ZM-75.01 164.94Q-98.05 164.94-112.64 151.37Q-127.23 137.80-127.23 117.83L-127.23 117.83Q-127.23 97.35-112.64 83.53Q-98.05 69.70-75.01 69.70L-75.01 69.70Q-52.48 69.70-37.89 83.53Q-23.30 97.35-23.30 117.83L-23.30 117.83Q-23.30 137.80-37.89 151.37Q-52.48 164.94-75.01 164.94L-75.01 164.94Z"/><path xml:space="preserve" font-family="Poppins" font-size="512" font-style="normal" font-weight="bold" style="stroke: none; stroke-width: 1; stroke-dasharray: none; stroke-linecap: butt; stroke-dashoffset: 0; stroke-linejoin: miter; stroke-miterlimit: 4; is-custom-font: none; font-file-url: none; fill: rgb(33,210,245); fill-rule: nonzero; opacity: 1; white-space: pre;" d="M100.61-154.55Q77.57-154.55 62.98-168.12Q48.38-181.69 48.38-201.66L48.38-201.66Q48.38-222.14 62.98-235.70Q77.57-249.27 100.61-249.27L100.61-249.27Q123.14-249.27 137.73-235.70Q152.32-222.14 152.32-201.66L152.32-201.66Q152.32-181.69 137.73-168.12Q123.14-154.55 100.61-154.55L100.61-154.55ZM56.58-124.86L144.13-124.86L144.13 160.84L56.58 160.84L56.58-124.86Z"/></g>
</svg>